<svg width="35" height="35" viewBox="0 0 35 35" fill="none" xmlns="http://www.w3.org/2000/svg">
<path d="M27.7084 5.83332H24.7917V4.37499C24.7917 3.98822 24.638 3.61728 24.3646 3.34379C24.0911 3.0703 23.7201 2.91666 23.3334 2.91666C22.9466 2.91666 22.5756 3.0703 22.3022 3.34379C22.0287 3.61728 21.875 3.98822 21.875 4.37499V5.83332H13.125V4.37499C13.125 3.98822 12.9714 3.61728 12.6979 3.34379C12.4244 3.0703 12.0535 2.91666 11.6667 2.91666C11.2799 2.91666 10.909 3.0703 10.6355 3.34379C10.362 3.61728 10.2084 3.98822 10.2084 4.37499V5.83332H7.29169C6.13136 5.83332 5.01857 6.29426 4.19809 7.11473C3.37762 7.9352 2.91669 9.048 2.91669 10.2083V27.7083C2.91669 28.8686 3.37762 29.9814 4.19809 30.8019C5.01857 31.6224 6.13136 32.0833 7.29169 32.0833H27.7084C28.8687 32.0833 29.9815 31.6224 30.8019 30.8019C31.6224 29.9814 32.0834 28.8686 32.0834 27.7083V10.2083C32.0834 9.048 31.6224 7.9352 30.8019 7.11473C29.9815 6.29426 28.8687 5.83332 27.7084 5.83332ZM29.1667 27.7083C29.1667 28.0951 29.013 28.466 28.7396 28.7395C28.4661 29.013 28.0951 29.1667 27.7084 29.1667H7.29169C6.90491 29.1667 6.53398 29.013 6.26049 28.7395C5.987 28.466 5.83335 28.0951 5.83335 27.7083V17.5H29.1667V27.7083ZM29.1667 14.5833H5.83335V10.2083C5.83335 9.82155 5.987 9.45062 6.26049 9.17713C6.53398 8.90364 6.90491 8.74999 7.29169 8.74999H10.2084V10.2083C10.2084 10.5951 10.362 10.966 10.6355 11.2395C10.909 11.513 11.2799 11.6667 11.6667 11.6667C12.0535 11.6667 12.4244 11.513 12.6979 11.2395C12.9714 10.966 13.125 10.5951 13.125 10.2083V8.74999H21.875V10.2083C21.875 10.5951 22.0287 10.966 22.3022 11.2395C22.5756 11.513 22.9466 11.6667 23.3334 11.6667C23.7201 11.6667 24.0911 11.513 24.3646 11.2395C24.638 10.966 24.7917 10.5951 24.7917 10.2083V8.74999H27.7084C28.0951 8.74999 28.4661 8.90364 28.7396 9.17713C29.013 9.45062 29.1667 9.82155 29.1667 10.2083V14.5833Z" fill="black"/>
</svg>
