<svg width="35" height="35" viewBox="0 0 35 35" fill="none" xmlns="http://www.w3.org/2000/svg">
<path d="M30.1465 8.13477L24.6777 2.66602C24.3668 2.36231 23.9503 2.19082 23.5156 2.1875H12.5781C11.854 2.19109 11.1606 2.48033 10.6486 2.99235C10.1366 3.50437 9.84734 4.19778 9.84375 4.92188V7.65625H7.65625C6.93216 7.65984 6.23874 7.94908 5.72673 8.4611C5.21471 8.97312 4.92547 9.66653 4.92188 10.3906V29.5312C4.92547 30.2553 5.21471 30.9488 5.72673 31.4608C6.23874 31.9728 6.93216 32.262 7.65625 32.2656H22.4219C23.146 32.262 23.8394 31.9728 24.3514 31.4608C24.8634 30.9488 25.1527 30.2553 25.1562 29.5312V26.7969H27.8906C28.6147 26.7933 29.3081 26.504 29.8202 25.992C30.3322 25.48 30.6214 24.7866 30.625 24.0625V9.29688C30.6217 8.86222 30.4502 8.44573 30.1465 8.13477ZM21.875 28.9844H8.20312V10.9375H17.3633L21.875 15.4492V28.9844ZM27.3438 23.5156H25.1562V14.7656C25.1529 14.331 24.9814 13.9145 24.6777 13.6035L19.209 8.13477C18.898 7.83106 18.4815 7.65957 18.0469 7.65625H13.125V5.46875H22.832L27.3438 9.98047V23.5156ZM19.6875 19.6875C19.6875 20.1226 19.5146 20.5399 19.207 20.8476C18.8993 21.1553 18.482 21.3281 18.0469 21.3281H12.0312C11.5961 21.3281 11.1788 21.1553 10.8712 20.8476C10.5635 20.5399 10.3906 20.1226 10.3906 19.6875C10.3906 19.2524 10.5635 18.8351 10.8712 18.5274C11.1788 18.2197 11.5961 18.0469 12.0312 18.0469H18.0469C18.482 18.0469 18.8993 18.2197 19.207 18.5274C19.5146 18.8351 19.6875 19.2524 19.6875 19.6875ZM19.6875 25.1562C19.6875 25.5914 19.5146 26.0087 19.207 26.3163C18.8993 26.624 18.482 26.7969 18.0469 26.7969H12.0312C11.5961 26.7969 11.1788 26.624 10.8712 26.3163C10.5635 26.0087 10.3906 25.5914 10.3906 25.1562C10.3906 24.7211 10.5635 24.3038 10.8712 23.9962C11.1788 23.6885 11.5961 23.5156 12.0312 23.5156H18.0469C18.482 23.5156 18.8993 23.6885 19.207 23.9962C19.5146 24.3038 19.6875 24.7211 19.6875 25.1562Z" fill="black"/>
</svg>
