<svg width="35" height="35" viewBox="0 0 35 35" fill="none" xmlns="http://www.w3.org/2000/svg">
<path d="M10.2084 7.29168V2.91668C10.2084 2.5299 10.362 2.15897 10.6355 1.88548C10.909 1.61199 11.2799 1.45834 11.6667 1.45834H23.3334C23.7201 1.45834 24.0911 1.61199 24.3646 1.88548C24.638 2.15897 24.7917 2.5299 24.7917 2.91668V7.29168H30.625C31.0118 7.29168 31.3827 7.44532 31.6562 7.71881C31.9297 7.9923 32.0834 8.36324 32.0834 8.75001V29.1667C32.0834 29.5534 31.9297 29.9244 31.6562 30.1979C31.3827 30.4714 31.0118 30.625 30.625 30.625H4.37502C3.98825 30.625 3.61731 30.4714 3.34382 30.1979C3.07033 29.9244 2.91669 29.5534 2.91669 29.1667V8.75001C2.91669 8.36324 3.07033 7.9923 3.34382 7.71881C3.61731 7.44532 3.98825 7.29168 4.37502 7.29168H10.2084ZM13.125 18.9583H5.83335V27.7083H29.1667V18.9583H21.875V23.3333H13.125V18.9583ZM29.1667 10.2083H5.83335V16.0417H13.125V13.125H21.875V16.0417H29.1667V10.2083ZM16.0417 16.0417V20.4167H18.9584V16.0417H16.0417ZM13.125 4.37501V7.29168H21.875V4.37501H13.125Z" fill="black"/>
</svg>
