<svg width="35" height="35" viewBox="0 0 35 35" fill="none" xmlns="http://www.w3.org/2000/svg">
<path d="M13.4896 32.0834L12.9063 27.4167C12.5903 27.2952 12.2928 27.1493 12.0138 26.9792C11.7338 26.809 11.4601 26.6268 11.1927 26.4323L6.85417 28.2552L2.84375 21.3281L6.59896 18.4844C6.57465 18.3143 6.5625 18.15 6.5625 17.9915V17.0071C6.5625 16.8496 6.57465 16.6858 6.59896 16.5156L2.84375 13.6719L6.85417 6.74481L11.1927 8.56773C11.4601 8.37328 11.7396 8.19099 12.0313 8.02085C12.3229 7.85071 12.6146 7.70488 12.9063 7.58335L13.4896 2.91669H21.5104L22.0938 7.58335C22.4097 7.70488 22.7077 7.85071 22.9877 8.02085C23.2667 8.19099 23.5399 8.37328 23.8073 8.56773L28.1458 6.74481L32.1562 13.6719L28.401 16.5156C28.4253 16.6858 28.4375 16.8496 28.4375 17.0071V17.9915C28.4375 18.15 28.4132 18.3143 28.3646 18.4844L32.1198 21.3281L28.1094 28.2552L23.8073 26.4323C23.5399 26.6268 23.2604 26.809 22.9688 26.9792C22.6771 27.1493 22.3854 27.2952 22.0938 27.4167L21.5104 32.0834H13.4896ZM17.5729 22.6042C18.9826 22.6042 20.1858 22.1059 21.1823 21.1094C22.1788 20.1129 22.6771 18.9097 22.6771 17.5C22.6771 16.0903 22.1788 14.8872 21.1823 13.8906C20.1858 12.8941 18.9826 12.3959 17.5729 12.3959C16.1389 12.3959 14.9294 12.8941 13.9446 13.8906C12.9607 14.8872 12.4688 16.0903 12.4688 17.5C12.4688 18.9097 12.9607 20.1129 13.9446 21.1094C14.9294 22.1059 16.1389 22.6042 17.5729 22.6042Z" fill="black"/>
</svg>
