<svg width="35" height="35" viewBox="0 0 35 35" fill="none" xmlns="http://www.w3.org/2000/svg">
<g clip-path="url(#clip0_133_2368)">
<path d="M17.3735 -0.0417496C17.3165 -0.0314693 17.2603 -0.0175301 17.2052 -1.87829e-05C16.9013 0.0680989 16.6304 0.239494 16.4387 0.484959C16.247 0.730424 16.1463 1.03477 16.1538 1.34614V2.69229H4.03846C2.9674 2.69229 1.9402 3.11777 1.18284 3.87513C0.42548 4.63249 0 5.65968 0 6.73075L0 24.2308C0 26.46 1.80923 28.2692 4.03846 28.2692H16.1538V28.774L8.83346 32.4342C8.51 32.5904 8.26183 32.8687 8.14356 33.2079C8.02529 33.547 8.04659 33.9193 8.20279 34.2428C8.35899 34.5662 8.63728 34.8144 8.97645 34.9327C9.31562 35.0509 9.68788 35.0296 10.0113 34.8734L16.1538 31.8029V32.3077C16.1538 32.6647 16.2957 33.0071 16.5481 33.2595C16.8006 33.512 17.143 33.6538 17.5 33.6538C17.857 33.6538 18.1994 33.512 18.4519 33.2595C18.7043 33.0071 18.8462 32.6647 18.8462 32.3077V31.8029L24.9887 34.8734C25.3121 35.0296 25.6844 35.0509 26.0236 34.9327C26.3627 34.8144 26.641 34.5662 26.7972 34.2428C26.9534 33.9193 26.9747 33.547 26.8564 33.2079C26.7382 32.8687 26.49 32.5904 26.1665 32.4342L18.8462 28.774V28.2692H30.9615C33.1908 28.2692 35 26.46 35 24.2308V6.73075C35 5.65968 34.5745 4.63249 33.8172 3.87513C33.0598 3.11777 32.0326 2.69229 30.9615 2.69229H18.8462V1.34614C18.853 1.15471 18.8188 0.964037 18.746 0.786857C18.6733 0.609677 18.5635 0.45007 18.4241 0.318699C18.2847 0.187328 18.1189 0.0872195 17.9377 0.0250606C17.7565 -0.0370983 17.5641 -0.0598756 17.3735 -0.0417496ZM2.69231 6.73075H32.3077V24.2308H2.69231V6.73075ZM28.101 8.0769C27.7994 8.10932 27.5177 8.24261 27.3013 8.45517L22.8846 12.8733L19.814 9.79998C19.667 9.64909 19.4866 9.53483 19.2873 9.46638C19.088 9.39793 18.8755 9.37722 18.6668 9.40589C18.458 9.43457 18.2589 9.51184 18.0855 9.63149C17.9121 9.75115 17.7692 9.90983 17.6683 10.0948L13.6715 17.0786L12.0306 12.9554C11.9509 12.7425 11.8186 12.5532 11.646 12.4053C11.4734 12.2573 11.2662 12.1555 11.0436 12.1092C10.8211 12.063 10.5904 12.0739 10.3732 12.1409C10.156 12.2078 9.95923 12.3287 9.80135 12.4923L5.76288 16.5308C5.6356 16.6579 5.53462 16.809 5.4657 16.9752C5.39679 17.1414 5.36128 17.3196 5.36122 17.4995C5.36116 17.6794 5.39654 17.8576 5.46534 18.0239C5.53414 18.1902 5.63502 18.3413 5.76221 18.4685C5.8894 18.5958 6.04042 18.6968 6.20664 18.7657C6.37286 18.8346 6.55103 18.8701 6.73097 18.8702C6.91091 18.8703 7.0891 18.8349 7.25536 18.7661C7.42163 18.6973 7.57272 18.5964 7.7 18.4692L10.2658 15.9034L12.2015 20.6984C12.2929 20.9389 12.4513 21.1482 12.6579 21.3015C12.8645 21.4548 13.1107 21.5456 13.3673 21.5633C13.6239 21.581 13.8803 21.5248 14.106 21.4014C14.3317 21.2779 14.5173 21.0924 14.6408 20.8667L19.1423 12.9998L21.9181 15.7769C22.0436 15.9068 22.194 16.01 22.3603 16.0806C22.5266 16.1511 22.7053 16.1875 22.886 16.1875C23.0666 16.1875 23.2454 16.1511 23.4116 16.0806C23.5779 16.01 23.7283 15.9068 23.8538 15.7769L29.2385 10.3923C29.4511 10.1954 29.5946 9.93519 29.6475 9.65028C29.7004 9.36536 29.66 9.07098 29.5322 8.81089C29.4044 8.55079 29.1961 8.33888 28.9382 8.20664C28.6804 8.0744 28.3867 8.0289 28.101 8.0769Z" fill="black"/>
</g>
<defs>
<clipPath id="clip0_133_2368">
<rect width="35" height="35" fill="white"/>
</clipPath>
</defs>
</svg>
