<svg width="35" height="35" viewBox="0 0 35 35" fill="none" xmlns="http://www.w3.org/2000/svg">
<path d="M10.1172 15.3125C9.82711 15.3125 9.54891 15.1973 9.34379 14.9922C9.13867 14.787 9.02344 14.5089 9.02344 14.2188C9.02344 13.9287 9.13867 13.6505 9.34379 13.4454C9.54891 13.2403 9.82711 13.125 10.1172 13.125H15.0391C15.3291 13.125 15.6073 13.2403 15.8125 13.4454C16.0176 13.6505 16.1328 13.9287 16.1328 14.2188C16.1328 14.5089 16.0176 14.787 15.8125 14.9922C15.6073 15.1973 15.3291 15.3125 15.0391 15.3125H13.6719V20.7813C13.6719 21.0714 13.5566 21.3496 13.3515 21.5547C13.1464 21.7598 12.8682 21.875 12.5781 21.875C12.288 21.875 12.0098 21.7598 11.8047 21.5547C11.5996 21.3496 11.4844 21.0714 11.4844 20.7813V15.3125H10.1172ZM31.7188 12.6738V20.7813C31.7169 22.1499 31.2019 23.4681 30.2754 24.4755C29.349 25.4829 28.0785 26.1063 26.7148 26.2227C26.0649 27.8413 24.946 29.2287 23.5018 30.2068C22.0576 31.1849 20.354 31.7091 18.6098 31.712C16.8656 31.715 15.1603 31.1965 13.7128 30.2233C12.2653 29.2501 11.1418 27.8664 10.4863 26.25H5.46875C4.88859 26.25 4.33219 26.0196 3.92195 25.6093C3.51172 25.1991 3.28125 24.6427 3.28125 24.0625V10.9375C3.28125 10.3574 3.51172 9.80096 3.92195 9.39072C4.33219 8.98049 4.88859 8.75002 5.46875 8.75002H13.2344C13.1635 8.3897 13.1269 8.02349 13.125 7.65627C13.1244 6.49634 13.4926 5.36626 14.1764 4.42933C14.8602 3.4924 15.8242 2.79716 16.9291 2.44408C18.034 2.09101 19.2225 2.09838 20.3229 2.46514C21.4233 2.8319 22.3786 3.53905 23.0508 4.48439C23.7563 4.06412 24.5606 3.83826 25.3818 3.8298C26.203 3.82133 27.0117 4.03057 27.7258 4.43622C28.4398 4.84186 29.0337 5.42944 29.4469 6.13914C29.8601 6.84885 30.0779 7.65535 30.0781 8.47658C30.08 9.34782 29.8334 10.2015 29.3672 10.9375H29.9824C30.2104 10.9375 30.4362 10.9824 30.6469 11.0697C30.8575 11.1569 31.049 11.2848 31.2102 11.4461C31.3714 11.6073 31.4993 11.7987 31.5866 12.0094C31.6738 12.22 31.7188 12.4458 31.7188 12.6738ZM23.9395 6.5215C24.0224 6.89404 24.0636 7.27462 24.0625 7.65627C24.0635 8.47613 23.8764 9.2853 23.5156 10.0215C23.7767 10.3452 24.1156 10.5975 24.5006 10.7548C24.8856 10.912 25.3041 10.9692 25.7172 10.9208C26.1303 10.8725 26.5243 10.7203 26.8626 10.4784C27.2009 10.2365 27.4724 9.91281 27.6517 9.53756C27.831 9.16232 27.9123 8.74775 27.8879 8.33259C27.8636 7.91742 27.7344 7.51519 27.5125 7.16346C27.2906 6.81173 26.9832 6.52198 26.619 6.32125C26.2547 6.12053 25.8456 6.01539 25.4297 6.01564C24.8905 6.01352 24.366 6.19156 23.9395 6.5215ZM15.5039 8.75002H19.6875C19.9955 8.75079 20.2998 8.81701 20.5803 8.94429C20.8608 9.07157 21.111 9.257 21.3145 9.4883C21.6771 8.94592 21.8721 8.30874 21.875 7.65627C21.875 6.78603 21.5293 5.95143 20.9139 5.33608C20.2986 4.72072 19.464 4.37502 18.5938 4.37502C17.7235 4.37502 16.8889 4.72072 16.2736 5.33608C15.6582 5.95143 15.3125 6.78603 15.3125 7.65627C15.315 8.02896 15.3797 8.39862 15.5039 8.75002ZM5.46875 24.0625H19.6875V10.9375H5.46875V24.0625ZM25.1562 22.9688V13.125H21.875V24.0625C21.875 24.6427 21.6445 25.1991 21.2343 25.6093C20.8241 26.0196 20.2677 26.25 19.6875 26.25H12.9062C13.4878 27.2436 14.3181 28.0687 15.3153 28.6441C16.3126 29.2194 17.4425 29.5252 18.5938 29.5313C20.3342 29.5313 22.0034 28.8399 23.2341 27.6092C24.4648 26.3785 25.1562 24.7093 25.1562 22.9688ZM29.5312 13.125H27.3438V22.9688C27.3464 23.275 27.3281 23.581 27.2891 23.8848C27.9406 23.6673 28.5075 23.2508 28.9097 22.694C29.312 22.1372 29.5294 21.4682 29.5312 20.7813V13.125Z" fill="black"/>
</svg>
