<svg width="62" height="40" viewBox="0 0 62 40" fill="none" xmlns="http://www.w3.org/2000/svg">
<path d="M4.67212 6.66666H32.7049V10H4.67212V6.66666ZM4.67212 18.3333H23.3606V21.6667H4.67212V18.3333ZM4.67212 30H32.7049V33.3333H4.67212V30Z" fill="#B0ADAD"/>
<path d="M47.532 26.4667L41.4894 20L47.532 13.5333C47.6762 13.379 47.7905 13.1958 47.8686 12.9942C47.9466 12.7926 47.9868 12.5766 47.9868 12.3583C47.9868 12.1401 47.9466 11.924 47.8686 11.7224C47.7905 11.5208 47.6762 11.3376 47.532 11.1833C47.3878 11.029 47.2166 10.9066 47.0282 10.8231C46.8398 10.7396 46.6379 10.6966 46.434 10.6966C46.2301 10.6966 46.0282 10.7396 45.8398 10.8231C45.6514 10.9066 45.4803 11.029 45.3361 11.1833L38.1877 18.8333C38.0433 18.9875 37.9288 19.1707 37.8506 19.3723C37.7725 19.5739 37.7323 19.7901 37.7323 20.0083C37.7323 20.2266 37.7725 20.4428 37.8506 20.6444C37.9288 20.846 38.0433 21.0291 38.1877 21.1833L45.3361 28.8333C45.9435 29.4833 46.9246 29.4833 47.532 28.8333C48.1238 28.1833 48.1394 27.1167 47.532 26.4667Z" fill="#B0ADAD"/>
</svg>
