<svg width="32" height="32" viewBox="0 0 32 32" fill="none" xmlns="http://www.w3.org/2000/svg">
<path d="M4.00006 20V22H8.58606L2.00006 28.586L3.41406 30L10.0001 23.414V28H12.0001V20H4.00006ZM24.0001 21H26.0001V26H24.0001V21ZM20.0001 16H22.0001V26H20.0001V16ZM16.0001 18H18.0001V26H16.0001V18Z" fill="black"/>
<path d="M28.0001 2H4.00006C3.46979 2.00053 2.96139 2.21141 2.58643 2.58637C2.21147 2.96133 2.00059 3.46973 2.00006 4V16H4.00006V13H28.0011L28.0021 28H16.0001V30H28.0001C28.5303 29.9992 29.0385 29.7882 29.4134 29.4133C29.7883 29.0384 29.9993 28.5302 30.0001 28V4C29.9995 3.46973 29.7886 2.96133 29.4137 2.58637C29.0387 2.21141 28.5303 2.00053 28.0001 2ZM12.0001 11H4.00006V4H12.0001V11ZM14.0001 11V4H28.0001V11H14.0001Z" fill="black"/>
</svg>
