<svg width="35" height="35" viewBox="0 0 35 35" fill="none" xmlns="http://www.w3.org/2000/svg">
<path d="M29.1594 5.97481C29.1028 5.14507 28.7333 4.36775 28.1255 3.80005C27.5177 3.23235 26.7171 2.91661 25.8854 2.91669H9.11456L8.88998 2.92398C8.06024 2.9809 7.28308 3.35078 6.71565 3.95883C6.14821 4.56687 5.83284 5.36771 5.83331 6.1994V28.8006L5.84061 29.0252C5.89716 29.855 6.26668 30.6323 6.87445 31.2C7.48222 31.7677 8.28289 32.0834 9.11456 32.0834H20.1512L17.9637 29.8959H9.11456L8.96581 29.8856C8.70396 29.8497 8.46399 29.7202 8.29027 29.521C8.11654 29.3218 8.02082 29.0664 8.02081 28.8021V6.1994L8.03102 6.05065C8.06697 5.7888 8.19652 5.54882 8.39571 5.3751C8.5949 5.20137 8.85026 5.10566 9.11456 5.10565H25.8854L26.0341 5.11585C26.296 5.1518 26.536 5.28135 26.7097 5.48054C26.8834 5.67973 26.9791 5.93509 26.9791 6.1994V23.0679L28.6694 21.3777C28.8239 21.2231 28.9902 21.0861 29.1652 20.9694V6.19794L29.1594 5.97481ZM23.7533 32.0819C23.7164 32.0839 23.6794 32.0839 23.6425 32.0819C23.3715 32.0683 23.1153 31.9545 22.9235 31.7625L19.2777 28.1138C19.0727 27.9084 18.9577 27.63 18.958 27.3398C18.9582 27.0497 19.0738 26.7715 19.2791 26.5665C19.4845 26.3615 19.7629 26.2465 20.0531 26.2468C20.3433 26.247 20.6214 26.3626 20.8264 26.5679L23.6979 29.4423L30.2166 22.9236C30.3176 22.8191 30.4383 22.7359 30.5718 22.6786C30.7053 22.6214 30.8488 22.5913 30.994 22.5901C31.1392 22.5889 31.2833 22.6166 31.4177 22.6717C31.552 22.7267 31.6741 22.808 31.7768 22.9107C31.8794 23.0135 31.9606 23.1356 32.0155 23.2701C32.0704 23.4045 32.098 23.5486 32.0967 23.6938C32.0954 23.839 32.0651 23.9825 32.0078 24.1159C31.9504 24.2494 31.867 24.37 31.7625 24.4709L24.4708 31.7625C24.2794 31.9541 24.0238 32.0679 23.7533 32.0819ZM20.1833 24.0625C20.0949 24.059 20.0063 24.059 19.9179 24.0625H16.3989C16.1089 24.0625 15.8307 23.9473 15.6255 23.7422C15.4204 23.5371 15.3052 23.2589 15.3052 22.9688C15.3052 22.6787 15.4204 22.4005 15.6255 22.1954C15.8307 21.9903 16.1089 21.875 16.3989 21.875H23.6964C23.9865 21.875 24.2647 21.9903 24.4698 22.1954C24.675 22.4005 24.7902 22.6787 24.7902 22.9688C24.7902 23.2589 24.675 23.5371 24.4698 23.7422C24.2647 23.9473 23.9865 24.0625 23.6964 24.0625H20.1833ZM13.125 11.305C13.125 11.6918 12.9713 12.0627 12.6978 12.3362C12.4244 12.6097 12.0534 12.7634 11.6666 12.7634C11.2799 12.7634 10.9089 12.6097 10.6354 12.3362C10.362 12.0627 10.2083 11.6918 10.2083 11.305C10.2083 10.9182 10.362 10.5473 10.6354 10.2738C10.9089 10.0003 11.2799 9.84669 11.6666 9.84669C12.0534 9.84669 12.4244 10.0003 12.6978 10.2738C12.9713 10.5473 13.125 10.9182 13.125 11.305ZM15.3066 11.3021C15.3066 11.012 15.4219 10.7338 15.627 10.5287C15.8321 10.3236 16.1103 10.2084 16.4004 10.2084H23.6979C23.988 10.2084 24.2662 10.3236 24.4713 10.5287C24.6764 10.7338 24.7916 11.012 24.7916 11.3021C24.7916 11.5922 24.6764 11.8704 24.4713 12.0755C24.2662 12.2806 23.988 12.3959 23.6979 12.3959H16.4004C16.1103 12.3959 15.8321 12.2806 15.627 12.0755C15.4219 11.8704 15.3066 11.5922 15.3066 11.3021ZM16.4004 16.0417C16.1103 16.0417 15.8321 16.1569 15.627 16.362C15.4219 16.5672 15.3066 16.8454 15.3066 17.1354C15.3066 17.4255 15.4219 17.7037 15.627 17.9088C15.8321 18.114 16.1103 18.2292 16.4004 18.2292H23.6979C23.8415 18.2292 23.9838 18.2009 24.1165 18.1459C24.2492 18.091 24.3697 18.0104 24.4713 17.9088C24.5729 17.8073 24.6534 17.6867 24.7084 17.554C24.7634 17.4213 24.7916 17.2791 24.7916 17.1354C24.7916 16.9918 24.7634 16.8496 24.7084 16.7169C24.6534 16.5842 24.5729 16.4636 24.4713 16.362C24.3697 16.2605 24.2492 16.1799 24.1165 16.1249C23.9838 16.07 23.8415 16.0417 23.6979 16.0417H16.4004ZM11.6666 18.5938C12.0534 18.5938 12.4244 18.4401 12.6978 18.1666C12.9713 17.8931 13.125 17.5222 13.125 17.1354C13.125 16.7487 12.9713 16.3777 12.6978 16.1042C12.4244 15.8307 12.0534 15.6771 11.6666 15.6771C11.2799 15.6771 10.9089 15.8307 10.6354 16.1042C10.362 16.3777 10.2083 16.7487 10.2083 17.1354C10.2083 17.5222 10.362 17.8931 10.6354 18.1666C10.9089 18.4401 11.2799 18.5938 11.6666 18.5938ZM13.125 22.9659C13.125 23.3526 12.9713 23.7236 12.6978 23.9971C12.4244 24.2705 12.0534 24.4242 11.6666 24.4242C11.2799 24.4242 10.9089 24.2705 10.6354 23.9971C10.362 23.7236 10.2083 23.3526 10.2083 22.9659C10.2083 22.5791 10.362 22.2081 10.6354 21.9347C10.9089 21.6612 11.2799 21.5075 11.6666 21.5075C12.0534 21.5075 12.4244 21.6612 12.6978 21.9347C12.9713 22.2081 13.125 22.5791 13.125 22.9659Z" fill="black"/>
</svg>
